# xmcd
#
# Track frame offsets: 
#        150
#        16197
#        28125
#        56922
#        72822
#        87332
#        107100
#        124195
#        136755
#        152310
#        171525
#        187770
#        201347
#
# Disc length: 2884 seconds
#
# Revision: 2
# Processed by: cddbd v1.5.2PL0 Copyright (c) Steve Scherf et al.
# Submitted via: ExactAudioCopyFreeDBPlugin 1.0
#
DISCID=ad0b420d
DTITLE=Paul Ubana Jones - I Need A Storm
DYEAR=1992
DGENRE=
TTITLE0=Call Him Hero
TTITLE1=Life Is Like That
TTITLE2=Song To Jimi
TTITLE3=Here Comes A Change
TTITLE4=Home Is Where The Hatred Is
TTITLE5=Oh Lucky Brother!
TTITLE6=You Better Get It Right
TTITLE7=Win You With A Smile
TTITLE8=So Bad
TTITLE9=It Ain't Easy
TTITLE10=I Need A Storm
TTITLE11=Sister Moon
TTITLE12=Not Ringing True
EXTD=1992 - Flying Fish Records, Inc\n\ntrigg@cs.waikato.ac.nz
EXTT0=
EXTT1=
EXTT2=
EXTT3=
EXTT4=
EXTT5=
EXTT6=
EXTT7=
EXTT8=
EXTT9=
EXTT10=
EXTT11=
EXTT12=
PLAYORDER=
